<?xml version="1.0" standalone="no"?>
<!DOCTYPE svg PUBLIC "-//W3C//DTD SVG 20010904//EN"
 "http://www.w3.org/TR/2001/REC-SVG-20010904/DTD/svg10.dtd">
<svg version="1.0" xmlns="http://www.w3.org/2000/svg"
 width="100.000000pt" height="100.000000pt" viewBox="0 0 100.000000 100.000000"
 preserveAspectRatio="xMidYMid meet">
<metadata>
Created by potrace 1.16, written by Peter Selinger 2001-2019
</metadata>
<g transform="translate(0.000000,100.000000) scale(0.100000,-0.100000)"
fill="#000000" stroke="none">
<path d="M380 991 c-82 -25 -169 -99 -209 -176 -45 -89 -56 -166 -53 -384 2
-237 -6 -269 -77 -317 -23 -14 -41 -31 -41 -36 0 -11 12 -4 56 28 19 14 35 19
40 14 6 -6 24 -2 46 10 20 10 39 16 42 12 4 -3 4 2 0 12 -5 13 -4 17 4 12 8
-5 10 -1 5 10 -4 11 -3 15 5 10 7 -4 13 9 17 36 3 24 10 68 15 98 8 49 9 45 5
-38 -3 -71 -9 -105 -28 -146 -26 -56 -86 -112 -111 -103 -8 3 -22 -3 -32 -14
-10 -12 -13 -19 -5 -19 23 0 96 43 123 73 20 20 27 24 22 11 -5 -18 -5 -18 6
-1 6 9 8 22 5 27 -3 6 -1 10 5 10 6 0 8 5 5 10 -3 6 -1 10 5 10 7 0 10 6 7 14
-3 8 0 17 8 20 26 9 26 -27 0 -68 l-26 -41 29 33 c26 29 31 31 42 17 7 -8 11
-17 9 -19 -28 -21 -79 -45 -79 -37 0 6 -6 10 -12 8 -13 -2 -48 -40 -48 -51 0
-9 60 18 109 48 41 27 44 27 63 9 12 -11 18 -26 15 -40 -2 -13 0 -23 4 -23 5
0 9 9 9 19 0 18 3 18 47 5 31 -10 50 -11 57 -4 7 7 5 10 -6 10 -9 0 -19 4 -22
9 -4 5 3 7 14 4 24 -6 26 4 5 27 -15 16 -24 42 -29 82 -1 9 -7 22 -13 30 -6 7
-18 36 -26 63 -9 28 -16 42 -16 32 -1 -10 8 -43 20 -75 11 -31 22 -68 24 -80
2 -13 11 -32 19 -41 19 -21 20 -32 4 -28 -7 1 -12 -4 -11 -10 4 -16 4 -16 -35
-2 -20 7 -32 19 -37 37 -3 15 -31 89 -61 165 -38 94 -58 160 -62 205 -16 150
20 277 101 360 22 23 36 42 30 42 -16 0 -79 -73 -101 -117 -40 -80 -46 -114
-47 -303 -1 -197 -8 -235 -57 -287 -25 -27 -49 -32 -26 -5 24 26 38 90 36 162
-1 64 -1 64 -8 -21 -7 -86 -29 -147 -58 -157 -7 -2 -3 13 10 35 22 37 23 45
20 233 -5 284 25 406 119 495 39 37 41 37 15 6 -77 -95 -107 -197 -111 -376
l-3 -140 8 140 c11 185 49 303 119 369 17 16 28 34 24 39 -3 6 -1 7 5 3 6 -4
34 1 62 10 64 21 157 15 223 -14 26 -12 47 -17 47 -12 0 5 -12 13 -26 16 -36
9 -17 23 31 23 89 1 101 0 81 -8 -17 -7 -16 -10 15 -31 30 -21 32 -21 16 -3
-14 16 -15 23 -6 29 7 4 10 3 6 -3 -4 -6 0 -16 8 -23 8 -7 12 -17 9 -22 -3 -5
1 -17 9 -26 8 -9 21 -30 29 -46 l15 -29 -1 49 c-2 57 -21 98 -42 90 -9 -3 -12
-1 -9 4 14 22 -46 32 -175 29 -8 0 -40 7 -70 16 -58 16 -109 18 -150 6z"/>
<path d="M575 867 c-82 -44 -166 -125 -204 -196 -41 -77 -58 -189 -43 -281
l11 -65 -4 75 c-6 100 8 191 40 256 27 55 109 154 127 154 6 0 -10 -22 -35
-49 -54 -57 -90 -126 -106 -199 -12 -58 -13 -180 -1 -227 4 -16 5 11 2 62 -11
197 55 341 196 432 44 28 51 30 87 20 57 -16 95 -37 133 -72 30 -29 32 -35 32
-104 0 -52 -4 -73 -12 -73 -9 0 -9 -3 1 -9 11 -7 7 -10 -15 -14 l-29 -4 32 -2
31 -1 4 83 c2 58 -1 89 -11 105 -19 32 -88 77 -138 92 -37 11 -41 15 -32 31
13 26 4 24 -66 -14z"/>
</g>
</svg>
